Coordinates
version=1
nRows=9
nColumns=42
inDegrees=yes

Units are S.I. units (second, meters, Newtons, ...)
If the header above contains a line with 'inDegrees', this indicates whether rotational values are in degrees (yes) or radians (no).

endheader
time	pelvis_tilt	pelvis_list	pelvis_rotation	pelvis_tx	pelvis_ty	pelvis_tz	hip_flexion_r	hip_adduction_r	hip_rotation_r	knee_angle_r	knee_adduction_r	knee_angle_r_beta	ankle_angle_r	subtalar_angle_r	mtp_angle_r	hip_flexion_l	hip_adduction_l	hip_rotation_l	knee_angle_l	knee_adduction_l	knee_angle_l_beta	ankle_angle_l	subtalar_angle_l	mtp_angle_l	lumbar_extension	lumbar_bending	lumbar_rotation	arm_flex_r	arm_add_r	arm_rot_r	elbow_flex_r	pro_sup_r	wrist_flex_r	wrist_dev_r	arm_flex_l	arm_add_l	arm_rot_l	elbow_flex_l	pro_sup_l	wrist_flex_l	wrist_dev_l
      0.00000000	     -6.12310700	     -2.31338385	      3.30476620	     -1.78509224	      0.96110034	     -0.10757991	     15.22665439	      2.04745980	     -8.00433462	     57.33715924	     -0.39616204	      1.00072221	      2.13245576	    -17.86778353	     -9.59089733	     13.28600818	      0.86277031	     10.36425179	      9.09812324	     -0.18042326	      0.15879221	      3.09235052	     -7.94692081	     -9.59089733	     -8.33691369	     -1.88082899	     -6.24121271	     -4.40209502	     -6.74635875	     -6.29396283	     20.77251159	     90.00000001	      0.00000000	      0.00000000	      4.22240682	    -14.45845977	     -7.64247383	     28.46043551	     90.00000001	      0.00000000	      0.00000000
      0.01000000	     -6.09718624	     -2.40640716	      3.42619053	     -1.77486589	      0.96211590	     -0.10870238	     16.66030731	      1.98518127	     -7.27703364	     57.21794709	      0.18388487	      0.99864157	      2.70798131	    -17.82207379	     -9.52793628	     12.17036022	      0.88415999	     10.51140516	      8.36240483	     -0.47217817	      0.14595150	      3.46955589	     -7.49871807	     -9.52793628	     -8.27100142	     -1.55387688	     -6.53345568	     -4.68767467	     -6.59509610	     -6.56900901	     20.06484993	     90.00000001	      0.00000000	      0.00000000	      4.73373592	    -14.59856854	     -7.06041867	     29.49340905	     90.00000001	      0.00000000	      0.00000000
      0.02000000	     -6.11806363	     -2.51109630	      3.53535145	     -1.76464041	      0.96285707	     -0.10969867	     18.10418661	      2.02482751	     -6.82058136	     56.78834327	      0.39216836	      0.99114357	      3.27347604	    -17.80135112	     -9.49783243	     11.19542218	      0.87710498	     10.50075500	      7.80875122	     -0.73884172	      0.13628842	      3.93775508	     -7.18776092	     -9.49783243	     -8.15584485	     -1.22339977	     -6.80566691	     -5.04446804	     -6.42900080	     -6.73380877	     19.48865189	     90.00000001	      0.00000000	      0.00000000	      5.30519959	    -14.68474517	     -6.73331833	     30.34925549	     90.00000001	      0.00000000	      0.00000000
      0.03000000	     -6.15588127	     -2.54876798	      3.68115048	     -1.75416448	      0.96335139	     -0.11077443	     19.43317582	      1.95089772	     -6.42799329	     56.02450476	      0.62263892	      0.97781207	      3.66174123	    -17.72556312	     -9.47351424	     10.24754890	      0.95292489	     10.41583571	      7.31213627	     -1.00078588	      0.12762085	      4.33193603	     -6.88344104	     -9.47351424	     -7.96448343	     -0.98761034	     -7.07542136	     -5.50903151	     -6.32815589	     -6.94931631	     19.01070959	     90.00000001	      0.00000000	      0.00000000	      5.84513869	    -14.77482049	     -6.41187101	     31.23155930	     90.00000001	      0.00000000	      0.00000000
      0.04000000	     -5.73989887	     -2.54297990	      3.71445231	     -1.74383848	      0.96436244	     -0.11140610	     20.12660900	      1.94940148	     -5.45419695	     54.89386923	      1.21650743	      0.95807876	      3.85035435	    -18.00144300	     -9.38200662	      8.39546654	      0.92592799	     10.92667325	      6.00032994	     -1.24060868	      0.10472551	      4.40541452	     -6.69614966	     -9.38200662	     -8.41203619	     -0.79840324	     -7.20289736	     -5.54837074	     -5.98546625	     -8.60507429	     18.21806539	     90.00000001	      0.00000000	      0.00000000	      6.21329425	    -15.28081025	     -4.90454664	     32.80229298	     90.00000001	      0.00000000	      0.00000000
      0.05000000	     -5.55707618	     -2.56076205	      3.86331182	     -1.73340991	      0.96476602	     -0.11224570	     21.02060218	      1.96508720	     -5.14053131	     53.51769556	      1.25116526	      0.93406000	      4.05855067	    -18.08802995	     -9.29377321	      7.04184504	      0.94433714	     11.20549768	      5.17046113	     -1.47520130	      0.09024157	      4.67530005	     -6.54529910	     -9.29377321	     -8.54494626	     -0.58397271	     -7.46549531	     -5.83563115	     -5.77945193	     -9.43617683	     17.72153373	     90.00000001	      0.00000000	      0.00000000	      6.71300937	    -15.53318017	     -4.32405712	     33.89153068	     90.00000001	      0.00000000	      0.00000000
      0.06000000	     -5.51077728	     -2.54823186	      4.01471611	     -1.72305607	      0.96470951	     -0.11302315	     22.01326139	      1.93906898	     -4.83374361	     51.96018955	      1.27953922	      0.90687639	      4.24718124	    -18.17991728	     -9.24508330	      5.89322972	      0.98910612	     11.42172901	      4.42649460	     -1.68229442	      0.07725691	      5.11893134	     -6.19049014	     -9.24508330	     -8.52392428	     -0.42312170	     -7.76076895	     -6.21961798	     -5.62007491	     -9.83133107	     17.38483299	     90.00000001	      0.00000000	      0.00000000	      7.17990516	    -15.77755845	     -3.91587763	     34.94965469	     90.00000001	      0.00000000	      0.00000000
      0.07000000	     -5.18526736	     -2.53212215	      4.18355097	     -1.71252941	      0.96485382	     -0.11381489	     22.52036483	      1.97397854	     -4.71474025	     49.99178229	      1.10070577	      0.87252120	      4.32631112	    -18.26232846	     -9.17665039	      4.40631831	      1.02694161	     11.57532275	      3.66386652	     -1.93223000	      0.06394653	      5.42019094	     -5.93466022	     -9.17665039	     -8.83829664	     -0.23603781	     -8.01252139	     -6.53856798	     -5.44619228	    -10.52571369	     17.08965430	     90.00000001	      0.00000000	      0.00000000	      7.69214127	    -16.07604778	     -3.21782639	     36.03375684	     90.00000001	      0.00000000	      0.00000000
      0.08000000	     -5.39796856	     -2.23837614	      4.32379890	     -1.70237472	      0.96387911	     -0.11471813	     23.73854755	      1.60183983	     -4.71455042	     48.19421779	      0.81445139	      0.84114778	      4.51075543	    -18.12086563	     -9.15989512	      3.82313655	      1.46870983	     11.30154133	      3.51785949	     -2.10556220	      0.06139823	      5.83155032	     -5.77483520	     -9.15989512	     -8.55495162	     -0.40615510	     -8.28118282	     -7.06873017	     -5.31795654	    -10.58764947	     16.99393276	     90.00000001	      0.00000000	      0.00000000	      8.30040954	    -16.22809260	     -3.12831287	     36.69664688	     90.00000001	      0.00000000	      0.00000000
